<svg width="336" height="280" viewBox="0 0 336 280" fill="none" xmlns="http://www.w3.org/2000/svg">
<rect x="0.5" y="0.5" width="335" height="279" rx="7.5" fill="#EDEDED" stroke="#B3B3B3" stroke-dasharray="5 5"/>
<path d="M157.654 96.3499C157.294 96.9197 156.814 97.4039 156.247 97.7684C155.68 98.1329 155.04 98.3689 154.372 98.4599C153.612 98.5679 152.858 98.6839 152.104 98.8099C149.998 99.1599 148.5 101.014 148.5 103.148V120C148.5 121.193 148.974 122.338 149.818 123.182C150.662 124.026 151.807 124.5 153 124.5H183C184.193 124.5 185.338 124.026 186.182 123.182C187.026 122.338 187.5 121.193 187.5 120V103.148C187.5 101.014 186 99.1599 183.896 98.8099C183.141 98.6842 182.385 98.5675 181.628 98.4599C180.96 98.3686 180.321 98.1325 179.754 97.768C179.188 97.4035 178.708 96.9195 178.348 96.3499L176.704 93.7179C176.335 93.1181 175.826 92.6161 175.222 92.2544C174.618 91.8927 173.935 91.6819 173.232 91.6399C169.747 91.4527 166.253 91.4527 162.768 91.6399C162.065 91.6819 161.382 91.8927 160.778 92.2544C160.174 92.6161 159.665 93.1181 159.296 93.7179L157.654 96.3499Z" stroke="#595959" stroke-width="1.5" stroke-linecap="round" stroke-linejoin="round"/>
<path d="M177 109.5C177 111.887 176.052 114.176 174.364 115.864C172.676 117.552 170.387 118.5 168 118.5C165.613 118.5 163.324 117.552 161.636 115.864C159.948 114.176 159 111.887 159 109.5C159 107.113 159.948 104.824 161.636 103.136C163.324 101.448 165.613 100.5 168 100.5C170.387 100.5 172.676 101.448 174.364 103.136C176.052 104.824 177 107.113 177 109.5ZM181.5 105H181.516V105.016H181.5V105Z" stroke="#595959" stroke-width="1.5" stroke-linecap="round" stroke-linejoin="round"/>
<path d="M92.7104 160.114C92.7104 159.162 92.9251 158.308 93.3544 157.552C93.7837 156.787 94.3671 156.189 95.1044 155.76C95.8511 155.331 96.6771 155.116 97.5824 155.116C98.6464 155.116 99.5751 155.373 100.368 155.886C101.162 156.399 101.74 157.127 102.104 158.07H100.578C100.308 157.482 99.9157 157.029 99.4024 156.712C98.8984 156.395 98.2917 156.236 97.5824 156.236C96.9011 156.236 96.2897 156.395 95.7484 156.712C95.2071 157.029 94.7824 157.482 94.4744 158.07C94.1664 158.649 94.0124 159.33 94.0124 160.114C94.0124 160.889 94.1664 161.57 94.4744 162.158C94.7824 162.737 95.2071 163.185 95.7484 163.502C96.2897 163.819 96.9011 163.978 97.5824 163.978C98.2917 163.978 98.8984 163.824 99.4024 163.516C99.9157 163.199 100.308 162.746 100.578 162.158H102.104C101.74 163.091 101.162 163.815 100.368 164.328C99.5751 164.832 98.6464 165.084 97.5824 165.084C96.6771 165.084 95.8511 164.874 95.1044 164.454C94.3671 164.025 93.7837 163.432 93.3544 162.676C92.9251 161.92 92.7104 161.066 92.7104 160.114ZM105.275 154.64V165H104.001V154.64H105.275ZM108.104 156.082C107.861 156.082 107.656 155.998 107.488 155.83C107.32 155.662 107.236 155.457 107.236 155.214C107.236 154.971 107.32 154.766 107.488 154.598C107.656 154.43 107.861 154.346 108.104 154.346C108.337 154.346 108.533 154.43 108.692 154.598C108.86 154.766 108.944 154.971 108.944 155.214C108.944 155.457 108.86 155.662 108.692 155.83C108.533 155.998 108.337 156.082 108.104 156.082ZM108.72 157.328V165H107.446V157.328H108.72ZM110.415 161.136C110.415 160.352 110.574 159.666 110.891 159.078C111.209 158.481 111.643 158.019 112.193 157.692C112.753 157.365 113.379 157.202 114.069 157.202C114.732 157.202 115.311 157.351 115.805 157.65C116.309 157.939 116.678 158.299 116.911 158.728V157.328H118.199V168.64H116.911V163.586C116.669 164.015 116.295 164.379 115.791 164.678C115.287 164.977 114.699 165.126 114.027 165.126C113.355 165.126 112.744 164.958 112.193 164.622C111.643 164.286 111.209 163.815 110.891 163.208C110.574 162.601 110.415 161.911 110.415 161.136ZM116.911 161.15C116.911 160.571 116.795 160.067 116.561 159.638C116.328 159.209 116.011 158.882 115.609 158.658C115.217 158.425 114.783 158.308 114.307 158.308C113.831 158.308 113.397 158.42 113.005 158.644C112.613 158.868 112.301 159.195 112.067 159.624C111.834 160.053 111.717 160.557 111.717 161.136C111.717 161.724 111.834 162.237 112.067 162.676C112.301 163.105 112.613 163.437 113.005 163.67C113.397 163.894 113.831 164.006 114.307 164.006C114.783 164.006 115.217 163.894 115.609 163.67C116.011 163.437 116.328 163.105 116.561 162.676C116.795 162.237 116.911 161.729 116.911 161.15ZM127.156 157.328V165H125.882V163.866C125.64 164.258 125.299 164.566 124.86 164.79C124.431 165.005 123.955 165.112 123.432 165.112C122.835 165.112 122.298 164.991 121.822 164.748C121.346 164.496 120.968 164.123 120.688 163.628C120.418 163.133 120.282 162.531 120.282 161.822V157.328H121.542V161.654C121.542 162.41 121.734 162.993 122.116 163.404C122.499 163.805 123.022 164.006 123.684 164.006C124.366 164.006 124.902 163.796 125.294 163.376C125.686 162.956 125.882 162.345 125.882 161.542V157.328H127.156ZM136.307 160.87C136.307 161.113 136.293 161.369 136.265 161.64H130.133C130.18 162.396 130.437 162.989 130.903 163.418C131.379 163.838 131.953 164.048 132.625 164.048C133.176 164.048 133.633 163.922 133.997 163.67C134.371 163.409 134.632 163.063 134.781 162.634H136.153C135.948 163.371 135.537 163.973 134.921 164.44C134.305 164.897 133.54 165.126 132.625 165.126C131.897 165.126 131.244 164.963 130.665 164.636C130.096 164.309 129.648 163.847 129.321 163.25C128.995 162.643 128.831 161.943 128.831 161.15C128.831 160.357 128.99 159.661 129.307 159.064C129.625 158.467 130.068 158.009 130.637 157.692C131.216 157.365 131.879 157.202 132.625 157.202C133.353 157.202 133.997 157.361 134.557 157.678C135.117 157.995 135.547 158.434 135.845 158.994C136.153 159.545 136.307 160.17 136.307 160.87ZM134.991 160.604C134.991 160.119 134.884 159.703 134.669 159.358C134.455 159.003 134.161 158.737 133.787 158.56C133.423 158.373 133.017 158.28 132.569 158.28C131.925 158.28 131.375 158.485 130.917 158.896C130.469 159.307 130.213 159.876 130.147 160.604H134.991ZM142.996 158.742C143.248 158.303 143.621 157.939 144.116 157.65C144.62 157.351 145.203 157.202 145.866 157.202C146.547 157.202 147.163 157.365 147.714 157.692C148.274 158.019 148.712 158.481 149.03 159.078C149.347 159.666 149.506 160.352 149.506 161.136C149.506 161.911 149.347 162.601 149.03 163.208C148.712 163.815 148.274 164.286 147.714 164.622C147.163 164.958 146.547 165.126 145.866 165.126C145.212 165.126 144.634 164.981 144.13 164.692C143.635 164.393 143.257 164.025 142.996 163.586V168.64H141.722V157.328H142.996V158.742ZM148.204 161.136C148.204 160.557 148.087 160.053 147.854 159.624C147.62 159.195 147.303 158.868 146.902 158.644C146.51 158.42 146.076 158.308 145.6 158.308C145.133 158.308 144.699 158.425 144.298 158.658C143.906 158.882 143.588 159.213 143.346 159.652C143.112 160.081 142.996 160.581 142.996 161.15C142.996 161.729 143.112 162.237 143.346 162.676C143.588 163.105 143.906 163.437 144.298 163.67C144.699 163.894 145.133 164.006 145.6 164.006C146.076 164.006 146.51 163.894 146.902 163.67C147.303 163.437 147.62 163.105 147.854 162.676C148.087 162.237 148.204 161.724 148.204 161.136ZM150.706 161.136C150.706 160.352 150.865 159.666 151.182 159.078C151.5 158.481 151.934 158.019 152.484 157.692C153.044 157.365 153.665 157.202 154.346 157.202C155.018 157.202 155.602 157.347 156.096 157.636C156.591 157.925 156.96 158.289 157.202 158.728V157.328H158.49V165H157.202V163.572C156.95 164.02 156.572 164.393 156.068 164.692C155.574 164.981 154.995 165.126 154.332 165.126C153.651 165.126 153.035 164.958 152.484 164.622C151.934 164.286 151.5 163.815 151.182 163.208C150.865 162.601 150.706 161.911 150.706 161.136ZM157.202 161.15C157.202 160.571 157.086 160.067 156.852 159.638C156.619 159.209 156.302 158.882 155.9 158.658C155.508 158.425 155.074 158.308 154.598 158.308C154.122 158.308 153.688 158.42 153.296 158.644C152.904 158.868 152.592 159.195 152.358 159.624C152.125 160.053 152.008 160.557 152.008 161.136C152.008 161.724 152.125 162.237 152.358 162.676C152.592 163.105 152.904 163.437 153.296 163.67C153.688 163.894 154.122 164.006 154.598 164.006C155.074 164.006 155.508 163.894 155.9 163.67C156.302 163.437 156.619 163.105 156.852 162.676C157.086 162.237 157.202 161.729 157.202 161.15ZM161.917 158.574C162.141 158.135 162.459 157.795 162.869 157.552C163.289 157.309 163.798 157.188 164.395 157.188V158.504H164.059C162.631 158.504 161.917 159.279 161.917 160.828V165H160.643V157.328H161.917V158.574ZM165.39 161.136C165.39 160.352 165.549 159.666 165.866 159.078C166.183 158.481 166.617 158.019 167.168 157.692C167.728 157.365 168.349 157.202 169.03 157.202C169.702 157.202 170.285 157.347 170.78 157.636C171.275 157.925 171.643 158.289 171.886 158.728V157.328H173.174V165H171.886V163.572C171.634 164.02 171.256 164.393 170.752 164.692C170.257 164.981 169.679 165.126 169.016 165.126C168.335 165.126 167.719 164.958 167.168 164.622C166.617 164.286 166.183 163.815 165.866 163.208C165.549 162.601 165.39 161.911 165.39 161.136ZM171.886 161.15C171.886 160.571 171.769 160.067 171.536 159.638C171.303 159.209 170.985 158.882 170.584 158.658C170.192 158.425 169.758 158.308 169.282 158.308C168.806 158.308 168.372 158.42 167.98 158.644C167.588 158.868 167.275 159.195 167.042 159.624C166.809 160.053 166.692 160.557 166.692 161.136C166.692 161.724 166.809 162.237 167.042 162.676C167.275 163.105 167.588 163.437 167.98 163.67C168.372 163.894 168.806 164.006 169.282 164.006C169.758 164.006 170.192 163.894 170.584 163.67C170.985 163.437 171.303 163.105 171.536 162.676C171.769 162.237 171.886 161.729 171.886 161.15ZM178.583 161.136C178.583 160.352 178.742 159.666 179.059 159.078C179.377 158.481 179.811 158.019 180.361 157.692C180.921 157.365 181.542 157.202 182.223 157.202C182.895 157.202 183.479 157.347 183.973 157.636C184.468 157.925 184.837 158.289 185.079 158.728V157.328H186.367V165H185.079V163.572C184.827 164.02 184.449 164.393 183.945 164.692C183.451 164.981 182.872 165.126 182.209 165.126C181.528 165.126 180.912 164.958 180.361 164.622C179.811 164.286 179.377 163.815 179.059 163.208C178.742 162.601 178.583 161.911 178.583 161.136ZM185.079 161.15C185.079 160.571 184.963 160.067 184.729 159.638C184.496 159.209 184.179 158.882 183.777 158.658C183.385 158.425 182.951 158.308 182.475 158.308C181.999 158.308 181.565 158.42 181.173 158.644C180.781 158.868 180.469 159.195 180.235 159.624C180.002 160.053 179.885 160.557 179.885 161.136C179.885 161.724 180.002 162.237 180.235 162.676C180.469 163.105 180.781 163.437 181.173 163.67C181.565 163.894 181.999 164.006 182.475 164.006C182.951 164.006 183.385 163.894 183.777 163.67C184.179 163.437 184.496 163.105 184.729 162.676C184.963 162.237 185.079 161.729 185.079 161.15ZM188.044 161.136C188.044 160.352 188.203 159.666 188.52 159.078C188.838 158.481 189.272 158.019 189.822 157.692C190.382 157.365 191.008 157.202 191.698 157.202C192.296 157.202 192.851 157.342 193.364 157.622C193.878 157.893 194.27 158.252 194.54 158.7V154.64H195.828V165H194.54V163.558C194.288 164.015 193.915 164.393 193.42 164.692C192.926 164.981 192.347 165.126 191.684 165.126C191.003 165.126 190.382 164.958 189.822 164.622C189.272 164.286 188.838 163.815 188.52 163.208C188.203 162.601 188.044 161.911 188.044 161.136ZM194.54 161.15C194.54 160.571 194.424 160.067 194.19 159.638C193.957 159.209 193.64 158.882 193.238 158.658C192.846 158.425 192.412 158.308 191.936 158.308C191.46 158.308 191.026 158.42 190.634 158.644C190.242 158.868 189.93 159.195 189.696 159.624C189.463 160.053 189.346 160.557 189.346 161.136C189.346 161.724 189.463 162.237 189.696 162.676C189.93 163.105 190.242 163.437 190.634 163.67C191.026 163.894 191.46 164.006 191.936 164.006C192.412 164.006 192.846 163.894 193.238 163.67C193.64 163.437 193.957 163.105 194.19 162.676C194.424 162.237 194.54 161.729 194.54 161.15ZM198.639 156.082C198.397 156.082 198.191 155.998 198.023 155.83C197.855 155.662 197.771 155.457 197.771 155.214C197.771 154.971 197.855 154.766 198.023 154.598C198.191 154.43 198.397 154.346 198.639 154.346C198.873 154.346 199.069 154.43 199.227 154.598C199.395 154.766 199.479 154.971 199.479 155.214C199.479 155.457 199.395 155.662 199.227 155.83C199.069 155.998 198.873 156.082 198.639 156.082ZM199.255 157.328V165H197.981V157.328H199.255ZM200.951 161.15C200.951 160.357 201.109 159.666 201.427 159.078C201.744 158.481 202.183 158.019 202.743 157.692C203.312 157.365 203.961 157.202 204.689 157.202C205.631 157.202 206.406 157.431 207.013 157.888C207.629 158.345 208.035 158.98 208.231 159.792H206.859C206.728 159.325 206.471 158.957 206.089 158.686C205.715 158.415 205.249 158.28 204.689 158.28C203.961 158.28 203.373 158.532 202.925 159.036C202.477 159.531 202.253 160.235 202.253 161.15C202.253 162.074 202.477 162.788 202.925 163.292C203.373 163.796 203.961 164.048 204.689 164.048C205.249 164.048 205.715 163.917 206.089 163.656C206.462 163.395 206.719 163.021 206.859 162.536H208.231C208.025 163.32 207.615 163.95 206.999 164.426C206.383 164.893 205.613 165.126 204.689 165.126C203.961 165.126 203.312 164.963 202.743 164.636C202.183 164.309 201.744 163.847 201.427 163.25C201.109 162.653 200.951 161.953 200.951 161.15ZM210.589 156.082C210.346 156.082 210.141 155.998 209.973 155.83C209.805 155.662 209.721 155.457 209.721 155.214C209.721 154.971 209.805 154.766 209.973 154.598C210.141 154.43 210.346 154.346 210.589 154.346C210.822 154.346 211.018 154.43 211.177 154.598C211.345 154.766 211.429 154.971 211.429 155.214C211.429 155.457 211.345 155.662 211.177 155.83C211.018 155.998 210.822 156.082 210.589 156.082ZM211.205 157.328V165H209.931V157.328H211.205ZM216.722 165.126C216.003 165.126 215.35 164.963 214.762 164.636C214.183 164.309 213.726 163.847 213.39 163.25C213.063 162.643 212.9 161.943 212.9 161.15C212.9 160.366 213.068 159.675 213.404 159.078C213.749 158.471 214.216 158.009 214.804 157.692C215.392 157.365 216.05 157.202 216.778 157.202C217.506 157.202 218.164 157.365 218.752 157.692C219.34 158.009 219.802 158.467 220.138 159.064C220.483 159.661 220.656 160.357 220.656 161.15C220.656 161.943 220.479 162.643 220.124 163.25C219.779 163.847 219.307 164.309 218.71 164.636C218.113 164.963 217.45 165.126 216.722 165.126ZM216.722 164.006C217.179 164.006 217.609 163.899 218.01 163.684C218.411 163.469 218.733 163.147 218.976 162.718C219.228 162.289 219.354 161.766 219.354 161.15C219.354 160.534 219.233 160.011 218.99 159.582C218.747 159.153 218.43 158.835 218.038 158.63C217.646 158.415 217.221 158.308 216.764 158.308C216.297 158.308 215.868 158.415 215.476 158.63C215.093 158.835 214.785 159.153 214.552 159.582C214.319 160.011 214.202 160.534 214.202 161.15C214.202 161.775 214.314 162.303 214.538 162.732C214.771 163.161 215.079 163.483 215.462 163.698C215.845 163.903 216.265 164.006 216.722 164.006ZM226.069 157.188C227.002 157.188 227.758 157.473 228.337 158.042C228.916 158.602 229.205 159.414 229.205 160.478V165H227.945V160.66C227.945 159.895 227.754 159.311 227.371 158.91C226.988 158.499 226.466 158.294 225.803 158.294C225.131 158.294 224.594 158.504 224.193 158.924C223.801 159.344 223.605 159.955 223.605 160.758V165H222.331V157.328H223.605V158.42C223.857 158.028 224.198 157.725 224.627 157.51C225.066 157.295 225.546 157.188 226.069 157.188ZM230.81 161.136C230.81 160.352 230.969 159.666 231.286 159.078C231.603 158.481 232.037 158.019 232.588 157.692C233.148 157.365 233.769 157.202 234.45 157.202C235.122 157.202 235.705 157.347 236.2 157.636C236.695 157.925 237.063 158.289 237.306 158.728V157.328H238.594V165H237.306V163.572C237.054 164.02 236.676 164.393 236.172 164.692C235.677 164.981 235.099 165.126 234.436 165.126C233.755 165.126 233.139 164.958 232.588 164.622C232.037 164.286 231.603 163.815 231.286 163.208C230.969 162.601 230.81 161.911 230.81 161.136ZM237.306 161.15C237.306 160.571 237.189 160.067 236.956 159.638C236.723 159.209 236.405 158.882 236.004 158.658C235.612 158.425 235.178 158.308 234.702 158.308C234.226 158.308 233.792 158.42 233.4 158.644C233.008 158.868 232.695 159.195 232.462 159.624C232.229 160.053 232.112 160.557 232.112 161.136C232.112 161.724 232.229 162.237 232.462 162.676C232.695 163.105 233.008 163.437 233.4 163.67C233.792 163.894 234.226 164.006 234.702 164.006C235.178 164.006 235.612 163.894 236.004 163.67C236.405 163.437 236.723 163.105 236.956 162.676C237.189 162.237 237.306 161.729 237.306 161.15ZM242.021 158.574C242.245 158.135 242.562 157.795 242.973 157.552C243.393 157.309 243.902 157.188 244.499 157.188V158.504H244.163C242.735 158.504 242.021 159.279 242.021 160.828V165H240.747V157.328H242.021V158.574ZM128.148 181.328V189H126.874V187.866C126.631 188.258 126.29 188.566 125.852 188.79C125.422 189.005 124.946 189.112 124.424 189.112C123.826 189.112 123.29 188.991 122.814 188.748C122.338 188.496 121.96 188.123 121.68 187.628C121.409 187.133 121.274 186.531 121.274 185.822V181.328H122.534V185.654C122.534 186.41 122.725 186.993 123.108 187.404C123.49 187.805 124.013 188.006 124.676 188.006C125.357 188.006 125.894 187.796 126.286 187.376C126.678 186.956 126.874 186.345 126.874 185.542V181.328H128.148ZM139.525 181.188C140.122 181.188 140.654 181.314 141.121 181.566C141.587 181.809 141.956 182.177 142.227 182.672C142.497 183.167 142.633 183.769 142.633 184.478V189H141.373V184.66C141.373 183.895 141.181 183.311 140.799 182.91C140.425 182.499 139.917 182.294 139.273 182.294C138.61 182.294 138.083 182.509 137.691 182.938C137.299 183.358 137.103 183.969 137.103 184.772V189H135.843V184.66C135.843 183.895 135.651 183.311 135.269 182.91C134.895 182.499 134.387 182.294 133.743 182.294C133.08 182.294 132.553 182.509 132.161 182.938C131.769 183.358 131.573 183.969 131.573 184.772V189H130.299V181.328H131.573V182.434C131.825 182.033 132.161 181.725 132.581 181.51C133.01 181.295 133.481 181.188 133.995 181.188C134.639 181.188 135.208 181.333 135.703 181.622C136.197 181.911 136.566 182.336 136.809 182.896C137.023 182.355 137.378 181.935 137.873 181.636C138.367 181.337 138.918 181.188 139.525 181.188ZM144.247 185.136C144.247 184.352 144.405 183.666 144.723 183.078C145.04 182.481 145.474 182.019 146.025 181.692C146.585 181.365 147.205 181.202 147.887 181.202C148.559 181.202 149.142 181.347 149.637 181.636C150.131 181.925 150.5 182.289 150.743 182.728V181.328H152.031V189H150.743V187.572C150.491 188.02 150.113 188.393 149.609 188.692C149.114 188.981 148.535 189.126 147.873 189.126C147.191 189.126 146.575 188.958 146.025 188.622C145.474 188.286 145.04 187.815 144.723 187.208C144.405 186.601 144.247 185.911 144.247 185.136ZM150.743 185.15C150.743 184.571 150.626 184.067 150.393 183.638C150.159 183.209 149.842 182.882 149.441 182.658C149.049 182.425 148.615 182.308 148.139 182.308C147.663 182.308 147.229 182.42 146.837 182.644C146.445 182.868 146.132 183.195 145.899 183.624C145.665 184.053 145.549 184.557 145.549 185.136C145.549 185.724 145.665 186.237 145.899 186.676C146.132 187.105 146.445 187.437 146.837 187.67C147.229 187.894 147.663 188.006 148.139 188.006C148.615 188.006 149.049 187.894 149.441 187.67C149.842 187.437 150.159 187.105 150.393 186.676C150.626 186.237 150.743 185.729 150.743 185.15ZM158.574 180.082C158.331 180.082 158.126 179.998 157.958 179.83C157.79 179.662 157.706 179.457 157.706 179.214C157.706 178.971 157.79 178.766 157.958 178.598C158.126 178.43 158.331 178.346 158.574 178.346C158.807 178.346 159.003 178.43 159.162 178.598C159.33 178.766 159.414 178.971 159.414 179.214C159.414 179.457 159.33 179.662 159.162 179.83C159.003 179.998 158.807 180.082 158.574 180.082ZM159.19 181.328V189H157.916V181.328H159.19ZM170.587 181.188C171.185 181.188 171.717 181.314 172.183 181.566C172.65 181.809 173.019 182.177 173.289 182.672C173.56 183.167 173.695 183.769 173.695 184.478V189H172.435V184.66C172.435 183.895 172.244 183.311 171.861 182.91C171.488 182.499 170.979 182.294 170.335 182.294C169.673 182.294 169.145 182.509 168.753 182.938C168.361 183.358 168.165 183.969 168.165 184.772V189H166.905V184.66C166.905 183.895 166.714 183.311 166.331 182.91C165.958 182.499 165.449 182.294 164.805 182.294C164.143 182.294 163.615 182.509 163.223 182.938C162.831 183.358 162.635 183.969 162.635 184.772V189H161.361V181.328H162.635V182.434C162.887 182.033 163.223 181.725 163.643 181.51C164.073 181.295 164.544 181.188 165.057 181.188C165.701 181.188 166.271 181.333 166.765 181.622C167.26 181.911 167.629 182.336 167.871 182.896C168.086 182.355 168.441 181.935 168.935 181.636C169.43 181.337 169.981 181.188 170.587 181.188ZM175.309 185.136C175.309 184.352 175.468 183.666 175.785 183.078C176.102 182.481 176.536 182.019 177.087 181.692C177.647 181.365 178.268 181.202 178.949 181.202C179.621 181.202 180.204 181.347 180.699 181.636C181.194 181.925 181.562 182.289 181.805 182.728V181.328H183.093V189H181.805V187.572C181.553 188.02 181.175 188.393 180.671 188.692C180.176 188.981 179.598 189.126 178.935 189.126C178.254 189.126 177.638 188.958 177.087 188.622C176.536 188.286 176.102 187.815 175.785 187.208C175.468 186.601 175.309 185.911 175.309 185.136ZM181.805 185.15C181.805 184.571 181.688 184.067 181.455 183.638C181.222 183.209 180.904 182.882 180.503 182.658C180.111 182.425 179.677 182.308 179.201 182.308C178.725 182.308 178.291 182.42 177.899 182.644C177.507 182.868 177.194 183.195 176.961 183.624C176.728 184.053 176.611 184.557 176.611 185.136C176.611 185.724 176.728 186.237 176.961 186.676C177.194 187.105 177.507 187.437 177.899 187.67C178.291 187.894 178.725 188.006 179.201 188.006C179.677 188.006 180.111 187.894 180.503 187.67C180.904 187.437 181.222 187.105 181.455 186.676C181.688 186.237 181.805 185.729 181.805 185.15ZM188.41 181.202C189.073 181.202 189.651 181.347 190.146 181.636C190.65 181.925 191.023 182.289 191.266 182.728V181.328H192.554V189.168C192.554 189.868 192.405 190.489 192.106 191.03C191.807 191.581 191.378 192.01 190.818 192.318C190.267 192.626 189.623 192.78 188.886 192.78C187.878 192.78 187.038 192.542 186.366 192.066C185.694 191.59 185.297 190.941 185.176 190.12H186.436C186.576 190.587 186.865 190.96 187.304 191.24C187.743 191.529 188.27 191.674 188.886 191.674C189.586 191.674 190.155 191.455 190.594 191.016C191.042 190.577 191.266 189.961 191.266 189.168V187.558C191.014 188.006 190.641 188.379 190.146 188.678C189.651 188.977 189.073 189.126 188.41 189.126C187.729 189.126 187.108 188.958 186.548 188.622C185.997 188.286 185.563 187.815 185.246 187.208C184.929 186.601 184.77 185.911 184.77 185.136C184.77 184.352 184.929 183.666 185.246 183.078C185.563 182.481 185.997 182.019 186.548 181.692C187.108 181.365 187.729 181.202 188.41 181.202ZM191.266 185.15C191.266 184.571 191.149 184.067 190.916 183.638C190.683 183.209 190.365 182.882 189.964 182.658C189.572 182.425 189.138 182.308 188.662 182.308C188.186 182.308 187.752 182.42 187.36 182.644C186.968 182.868 186.655 183.195 186.422 183.624C186.189 184.053 186.072 184.557 186.072 185.136C186.072 185.724 186.189 186.237 186.422 186.676C186.655 187.105 186.968 187.437 187.36 187.67C187.752 187.894 188.186 188.006 188.662 188.006C189.138 188.006 189.572 187.894 189.964 187.67C190.365 187.437 190.683 187.105 190.916 186.676C191.149 186.237 191.266 185.729 191.266 185.15ZM201.707 184.87C201.707 185.113 201.693 185.369 201.665 185.64H195.533C195.58 186.396 195.836 186.989 196.303 187.418C196.779 187.838 197.353 188.048 198.025 188.048C198.576 188.048 199.033 187.922 199.397 187.67C199.77 187.409 200.032 187.063 200.181 186.634H201.553C201.348 187.371 200.937 187.973 200.321 188.44C199.705 188.897 198.94 189.126 198.025 189.126C197.297 189.126 196.644 188.963 196.065 188.636C195.496 188.309 195.048 187.847 194.721 187.25C194.394 186.643 194.231 185.943 194.231 185.15C194.231 184.357 194.39 183.661 194.707 183.064C195.024 182.467 195.468 182.009 196.037 181.692C196.616 181.365 197.278 181.202 198.025 181.202C198.753 181.202 199.397 181.361 199.957 181.678C200.517 181.995 200.946 182.434 201.245 182.994C201.553 183.545 201.707 184.17 201.707 184.87ZM200.391 184.604C200.391 184.119 200.284 183.703 200.069 183.358C199.854 183.003 199.56 182.737 199.187 182.56C198.823 182.373 198.417 182.28 197.969 182.28C197.325 182.28 196.774 182.485 196.317 182.896C195.869 183.307 195.612 183.876 195.547 184.604H200.391ZM212.615 181.188C213.212 181.188 213.744 181.314 214.211 181.566C214.677 181.809 215.046 182.177 215.317 182.672C215.587 183.167 215.723 183.769 215.723 184.478V189H214.463V184.66C214.463 183.895 214.271 183.311 213.889 182.91C213.515 182.499 213.007 182.294 212.363 182.294C211.7 182.294 211.173 182.509 210.781 182.938C210.389 183.358 210.193 183.969 210.193 184.772V189H208.933V184.66C208.933 183.895 208.741 183.311 208.359 182.91C207.985 182.499 207.477 182.294 206.833 182.294C206.17 182.294 205.643 182.509 205.251 182.938C204.859 183.358 204.663 183.969 204.663 184.772V189H203.389V181.328H204.663V182.434C204.915 182.033 205.251 181.725 205.671 181.51C206.1 181.295 206.571 181.188 207.085 181.188C207.729 181.188 208.298 181.333 208.793 181.622C209.287 181.911 209.656 182.336 209.899 182.896C210.113 182.355 210.468 181.935 210.963 181.636C211.457 181.337 212.008 181.188 212.615 181.188Z" fill="#595959"/>
</svg>
